<svg xmlns="http://www.w3.org/2000/svg" xmlns:xlink="http://www.w3.org/1999/xlink" viewBox="0,0,256,256" width="50px" height="50px"><g fill="#ffffff" fill-rule="nonzero" stroke="none" stroke-width="1" stroke-linecap="butt" stroke-linejoin="miter" stroke-miterlimit="10" stroke-dasharray="" stroke-dashoffset="0" font-family="none" font-weight="none" font-size="none" text-anchor="none" style="mix-blend-mode: normal"><g transform="scale(5.12,5.12)"><path d="M40.97656,7c1.66016,0.04297 2.85156,0.46875 3.63672,1.30078c1.01953,1.08203 1.48438,2.97266 1.38672,5.60156c-0.20312,4.24219 -3.40234,10.47656 -9.02344,17.57813c-7.17187,9.40625 -11.72656,11.38281 -14.28516,11.38281c-1.68359,0 -3.41406,-2.14062 -4.87891,-6.02344c-0.59766,-2.25 -1.23047,-4.52734 -1.84375,-6.73047c-0.61719,-2.22266 -1.25391,-4.52344 -1.86328,-6.82031c-1.25391,-4.38281 -2.98437,-8.85937 -6.30469,-8.85937c-0.26172,0 -0.75391,0 -1.98828,0.63672c0.14063,-0.11328 0.28125,-0.22266 0.42188,-0.33594c1.19141,-0.94141 2.42188,-1.91797 3.64453,-3.02734c1.66797,-1.44531 4.19141,-3.63281 5.30469,-3.71094c0.12891,-0.01172 0.25781,-0.01953 0.38281,-0.01953c3.04297,0 4.05078,3.75 4.38281,5.99609c0.85156,5.47656 1.59766,8.49609 1.95703,9.94531l0.03906,0.15625c0.85547,4.01953 1.95313,7.92969 5.05469,7.92969c1.20313,0 3.625,-0.61328 6.35938,-4.76172c2.38672,-3.75391 2.93359,-6.80469 3.04297,-8.32031c0.14844,-1.25781 0.20313,-3.04687 -0.92578,-4.32422c-1.09375,-1.23828 -2.69531,-1.37891 -3.80469,-1.37891c-0.07422,0 -0.14844,0 -0.21875,0.00391c2.09375,-4.37109 5.01953,-6.21875 9.52344,-6.21875M40.97656,5c-6.77344,0 -10.51172,3.80469 -12.80859,11.21094c1.20313,-0.44531 2.41016,-0.99609 3.50391,-0.99609c2.30078,0 3.06641,0.85547 2.73828,3.51172c-0.10937,1.66016 -0.76562,4.33984 -2.73828,7.4375c-1.97266,2.98828 -3.6875,3.83594 -4.67187,3.83594c-1.20312,0 -2.11719,-1.73047 -3.10156,-6.37891c-0.32812,-1.32812 -1.09375,-4.31641 -1.97266,-9.95703c-0.72266,-4.92187 -3.04687,-7.69141 -6.35547,-7.69141c-0.1875,0 -0.37891,0.00781 -0.57031,0.02734c-1.53125,0.10938 -3.36328,1.53516 -6.42969,4.19141c-2.19141,1.99219 -4.26953,3.42969 -6.57031,5.42188l2.19141,2.80859c2.07813,-1.4375 3.28516,-1.99219 3.61328,-1.99219c1.53125,0 2.95313,2.43359 4.37891,7.41406c1.20313,4.53516 2.51563,9.07031 3.72266,13.60547c1.85938,4.98047 4.16016,7.41406 6.78516,7.41406c4.38281,0 9.63672,-3.98047 15.87891,-12.16797c6.12891,-7.74609 9.21094,-14.16016 9.42969,-18.69531c0.21875,-5.97266 -2.18359,-8.89062 -7,-9c-0.00781,0 -0.01562,0 -0.02344,0z"></path></g></g></svg>